<svg width="16" height="16" viewBox="0 0 16 16" fill="none" xmlns="http://www.w3.org/2000/svg">
<path d="M1.49999 8.99988C0.947711 8.99988 0.5 8.55217 0.5 7.99988C0.5 7.4476 0.947711 6.99989 1.49999 6.99989L12.0858 6.99989L7.79289 2.70694C7.40237 2.31642 7.40237 1.68341 7.79289 1.29289C8.18341 0.902369 8.81642 0.902369 9.20694 1.29289L15.2069 7.29286C15.573 7.65899 15.5963 8.23862 15.2759 8.63139L15.2069 8.70691L9.20694 14.7069L9.13142 14.7759C8.73865 15.0963 8.15903 15.073 7.79289 14.7069C7.42676 14.3407 7.40347 13.7611 7.72388 13.3683L7.79289 13.2928L12.0858 8.99988L1.49999 8.99988Z" fill="white"/>
</svg>
