<svg width="157" height="40" viewBox="0 0 157 40" fill="none" xmlns="http://www.w3.org/2000/svg">
<rect x="5.40778" y="4.32971" width="31.2442" height="31.8451" fill="white"/>
<path d="M20 0C28.7127 0 33.0693 0.000233948 36.0176 2.38281C36.6057 2.8581 37.1419 3.39432 37.6172 3.98242C39.9997 6.9307 40 11.2874 40 20C40 28.7127 39.9998 33.0692 37.6172 36.0176C37.1417 36.6059 36.6059 37.1428 36.0176 37.6182C33.0693 40.0007 28.7126 40 20 40C11.2874 40 6.93072 40.0007 3.98242 37.6182C3.39415 37.1428 2.85822 36.6058 2.38281 36.0176C0.000224023 33.0692 0 28.7127 0 20C1.94384e-10 11.2874 0.000245544 6.9307 2.38281 3.98242C2.85813 3.39431 3.39429 2.8581 3.98242 2.38281C6.93072 0.000227436 11.2873 0 20 0ZM19.1406 6.39355C16.0993 5.63283 13.8227 6.98926 13.25 10.0303C11.8895 17.2542 9.8069 28.6926 9.12012 32.4561C8.77388 34.3566 10.3535 34.7364 11.916 33.5527C15.2325 31.0389 17.1872 27.0623 17.9404 22.9658C18.6322 19.2035 19.3331 15.4422 19.9941 11.6748C20.1317 10.6261 20.3605 10.089 20.8193 9.82324C21.9826 9.14992 23.4349 9.96909 24.2607 11.2783C27.2589 16.0313 24.3547 22.0894 21.0752 25.3154C20.6387 25.7451 20.5612 26.4336 21.7695 26.0439C25.0592 24.9831 30.1063 21.2203 30.8086 17.4082C31.9837 11.0283 24.1678 7.65158 19.1406 6.39355Z" fill="#0085E2"/>
<path fill-rule="evenodd" clip-rule="evenodd" d="M56.7185 18.559C56.7185 18.0629 56.627 17.5905 56.4441 17.1419C56.2611 16.6934 56.0053 16.2975 55.6767 15.9542C55.348 15.611 54.9584 15.3374 54.5078 15.1335C54.0572 14.9296 53.5642 14.8277 53.0289 14.8277H51.0468V22.2904H53.1102C53.5981 22.2904 54.0605 22.1953 54.4976 22.005C54.9347 21.8146 55.3175 21.553 55.6462 21.2199C55.9748 20.8869 56.2357 20.4927 56.4288 20.0373C56.622 19.5819 56.7185 19.0892 56.7185 18.559ZM51.5737 12.4396C51.9519 12.4396 52.3267 12.4447 52.6982 12.4549C53.0697 12.4651 53.4446 12.477 53.8228 12.4905C54.5793 12.5516 55.2969 12.7502 55.9757 13.0863C56.6545 13.4224 57.2471 13.8604 57.7537 14.4002C58.2603 14.94 58.6621 15.5646 58.9593 16.2742C59.2565 16.9837 59.4051 17.7493 59.4051 18.5709C59.4051 19.3653 59.2616 20.1156 58.9745 20.8217C58.6875 21.5279 58.2924 22.1542 57.7892 22.7008C57.286 23.2474 56.695 23.6938 56.0162 24.0401C55.3374 24.3864 54.6097 24.5935 53.8329 24.6614C53.6506 24.675 53.4682 24.6869 53.2858 24.697C53.1035 24.7072 52.9177 24.7123 52.7286 24.7123H51.0468V27.1159C51.0468 27.4147 50.8915 27.5641 50.5808 27.5641H48.7065C48.4093 27.5641 48.2607 27.4147 48.2607 27.1159V12.9183C48.2607 12.7689 48.2996 12.6518 48.3773 12.5669C48.4549 12.482 48.5681 12.4396 48.7166 12.4396H51.5737ZM67.4335 12.4396C67.9742 12.4396 68.4997 12.5109 69.0099 12.6536C69.5202 12.7963 69.9967 12.9968 70.4394 13.2549C70.882 13.5131 71.2875 13.824 71.6559 14.1875C72.0242 14.551 72.3402 14.9553 72.6038 15.4003C72.8673 15.8453 73.0718 16.326 73.2171 16.8424C73.3624 17.3588 73.435 17.8956 73.435 18.4527C73.435 18.9283 73.3827 19.3886 73.2779 19.8337C73.1732 20.2787 73.0211 20.7 72.8217 21.0974C72.6223 21.4949 72.3841 21.8669 72.107 22.2134C71.8299 22.56 71.519 22.8691 71.1743 23.1409L73.0194 26.8405C73.0532 26.9016 73.087 26.9696 73.1208 27.0443C73.1546 27.119 73.1748 27.1836 73.1816 27.2379C73.1816 27.3399 73.1444 27.4197 73.0701 27.4774C72.9957 27.5352 72.9011 27.5641 72.7862 27.5641H70.6269C70.3768 27.5641 70.2079 27.435 70.12 27.1768L68.7109 24.2925C68.5081 24.3469 68.3003 24.3911 68.0874 24.425C67.8745 24.459 67.6565 24.476 67.4335 24.476H64.382V27.1258C64.382 27.418 64.2266 27.5641 63.9157 27.5641H62.0402C61.7429 27.5641 61.5942 27.418 61.5942 27.1258V12.9186C61.5942 12.5993 61.7429 12.4396 62.0402 12.4396H67.4335ZM70.7485 18.4149C70.7485 17.9825 70.6705 17.567 70.5145 17.1685C70.3585 16.7699 70.1449 16.4119 69.8736 16.0943C69.6023 15.7768 69.2785 15.5134 68.9021 15.3039C68.5257 15.0945 68.1205 14.9628 67.6864 14.9087C67.5033 14.8817 67.3185 14.8615 67.132 14.8479C66.9455 14.8344 66.7539 14.8277 66.5572 14.8277H64.3803V21.9919H67.31C67.7983 21.9919 68.2527 21.9007 68.6732 21.7183C69.0937 21.5359 69.4565 21.2843 69.7617 20.9634C70.0669 20.6425 70.3076 20.2642 70.484 19.8285C70.6603 19.3927 70.7485 18.9215 70.7485 18.4149ZM75.0271 20.012C75.0271 19.3009 75.1185 18.6135 75.3014 17.9498C75.4842 17.2861 75.745 16.6664 76.0836 16.0907C76.4222 15.5151 76.8269 14.9902 77.2976 14.5161C77.7683 14.0421 78.2914 13.6374 78.8671 13.3022C79.4428 12.9669 80.0607 12.7062 80.7211 12.52C81.3814 12.3337 82.0705 12.2406 82.7883 12.2406C83.4995 12.2406 84.1852 12.3337 84.8455 12.52C85.5058 12.7062 86.1238 12.9669 86.6994 13.3022C87.2751 13.6374 87.8 14.0421 88.2741 14.5161C88.7481 14.9902 89.1528 15.5151 89.488 16.0907C89.8233 16.6664 90.084 17.2861 90.2702 17.9498C90.4565 18.6135 90.5496 19.3009 90.5496 20.012C90.5496 20.7299 90.4565 21.419 90.2702 22.0793C90.084 22.7396 89.8233 23.3559 89.488 23.9282C89.1528 24.5005 88.7481 25.0219 88.2741 25.4926C87.8 25.9633 87.2751 26.368 86.6994 26.7066C86.1238 27.0452 85.5058 27.3059 84.8455 27.4888C84.1852 27.6717 83.4995 27.7631 82.7883 27.7631C82.0705 27.7631 81.3814 27.6717 80.7211 27.4888C80.0607 27.3059 79.4428 27.0452 78.8671 26.7066C78.2914 26.368 77.7683 25.9633 77.2976 25.4926C76.8269 25.0219 76.4222 24.5005 76.0836 23.9282C75.745 23.3559 75.4842 22.7396 75.3014 22.0793C75.1185 21.419 75.0271 20.7299 75.0271 20.012ZM77.8132 20.012C77.8132 20.7171 77.9401 21.3764 78.1939 21.99C78.4478 22.6036 78.7981 23.1392 79.2448 23.5968C79.6916 24.0545 80.2178 24.4155 80.8237 24.6799C81.4295 24.9443 82.0844 25.0765 82.7883 25.0765C83.4855 25.0765 84.1371 24.9443 84.7429 24.6799C85.3487 24.4155 85.875 24.0545 86.3217 23.5968C86.7685 23.1392 87.1205 22.6036 87.3777 21.99C87.6349 21.3764 87.7635 20.7171 87.7635 20.012C87.7635 19.3137 87.6349 18.6544 87.3777 18.034C87.1205 17.4137 86.7685 16.8747 86.3217 16.417C85.875 15.9594 85.3487 15.5967 84.7429 15.3289C84.1371 15.0611 83.4855 14.9272 82.7883 14.9272C82.0844 14.9272 81.4295 15.0611 80.8237 15.3289C80.2178 15.5967 79.6916 15.9594 79.2448 16.417C78.7981 16.8747 78.4478 17.4137 78.1939 18.034C77.9401 18.6544 77.8132 19.3137 77.8132 20.012ZM96.4194 12.8667C96.4194 12.6023 96.5545 12.4599 96.8247 12.4396H98.7098C98.8652 12.4396 98.9868 12.482 99.0746 12.5667C99.1625 12.6514 99.2064 12.7718 99.2064 12.9277V23.0654C99.2064 23.2484 99.2013 23.428 99.1912 23.6043C99.181 23.7805 99.1625 23.9568 99.1354 24.133C99.0679 24.6482 98.9108 25.1278 98.6642 25.5718C98.4176 26.0158 98.1085 26.4005 97.7369 26.7259C97.3653 27.0513 96.9413 27.3055 96.465 27.4885C95.9886 27.6716 95.4836 27.7631 94.9499 27.7631C94.3756 27.7631 93.83 27.658 93.3131 27.4479C92.7962 27.2377 92.3554 26.9225 91.9906 26.5022C91.896 26.448 91.798 26.3768 91.6966 26.2887C91.5953 26.2006 91.5446 26.1091 91.5446 26.0142C91.5446 25.9938 91.5514 25.9616 91.5649 25.9176C91.5784 25.8735 91.5936 25.8277 91.6105 25.7803C91.6274 25.7328 91.646 25.6922 91.6662 25.6583C91.6865 25.6244 91.7034 25.6006 91.7169 25.5871L92.8216 24.5296L92.9128 24.4686C92.9804 24.4144 93.0479 24.3872 93.1155 24.3872C93.2236 24.3872 93.3131 24.416 93.3841 24.4737C93.455 24.5313 93.531 24.5957 93.6121 24.6669C93.6932 24.738 93.7911 24.8024 93.906 24.8601C94.0209 24.9177 94.1796 24.9465 94.3823 24.9465C94.5512 25.0075 94.737 25.038 94.9397 25.038C95.1357 25.038 95.3231 25.0007 95.5022 24.9262C95.6812 24.8516 95.8383 24.7499 95.9734 24.6211C96.1086 24.4923 96.2167 24.3381 96.2977 24.1585C96.3788 23.9788 96.4194 23.7839 96.4194 23.5738V12.8667ZM102.291 12.9081C102.291 12.7655 102.33 12.6518 102.408 12.5669C102.486 12.482 102.597 12.4396 102.739 12.4396H112.704C113.017 12.4396 113.173 12.5992 113.173 12.9183V14.5377C113.173 14.6599 113.132 14.7719 113.051 14.8738C112.969 14.9756 112.85 15.0266 112.694 15.0266H105.103V20.1088H111.074C111.196 20.1088 111.301 20.141 111.39 20.2055C111.478 20.27 111.522 20.3804 111.522 20.5365V22.0032C111.522 22.1118 111.483 22.2119 111.405 22.3036C111.327 22.3953 111.217 22.4411 111.074 22.4411H105.103V24.9873H112.877C113.183 24.9873 113.336 25.1435 113.336 25.4558V27.1058C113.336 27.2416 113.292 27.3519 113.203 27.4368C113.115 27.5216 113 27.5641 112.857 27.5641H102.739C102.603 27.5641 102.495 27.5284 102.413 27.4571C102.332 27.3858 102.291 27.2755 102.291 27.1261V12.9081ZM126.912 13.6831C126.987 13.7305 127.048 13.7881 127.095 13.8558C127.143 13.9236 127.167 13.9981 127.167 14.0793C127.167 14.1335 127.157 14.1809 127.136 14.2215L127.065 14.3638L126.036 15.8571C125.941 15.9925 125.836 16.0603 125.721 16.0603C125.687 16.0603 125.641 16.0535 125.583 16.04C125.525 16.0264 125.463 15.9959 125.395 15.9485C124.946 15.6438 124.483 15.4016 124.004 15.2222C123.526 15.0427 123.008 14.953 122.451 14.953C121.725 14.953 121.053 15.0884 120.435 15.3593C119.817 15.6302 119.282 15.9959 118.831 16.4565C118.379 16.917 118.026 17.4537 117.771 18.0666C117.517 18.6795 117.389 19.328 117.389 20.012C117.389 20.7163 117.52 21.3733 117.782 21.9828C118.043 22.5923 118.398 23.1256 118.846 23.5828C119.294 24.0399 119.818 24.3989 120.419 24.6596C121.02 24.9203 121.66 25.0507 122.339 25.0507C123.351 25.0507 124.329 24.7358 125.272 24.106L125.609 23.9231C125.622 23.9231 125.636 23.9214 125.649 23.918C125.663 23.9146 125.676 23.9129 125.69 23.9129C125.724 23.9129 125.785 23.9536 125.873 24.0348C125.962 24.1161 126.06 24.2211 126.169 24.3498C126.277 24.4784 126.391 24.6224 126.51 24.7815C126.629 24.9407 126.737 25.0947 126.836 25.2437C126.934 25.3927 127.014 25.5299 127.075 25.6552C127.136 25.7804 127.167 25.877 127.167 25.9447C127.167 26.0327 127.145 26.1055 127.101 26.1631C127.056 26.2207 126.997 26.2765 126.922 26.3307C126.277 26.7777 125.576 27.1282 124.819 27.3821C124.062 27.6361 123.256 27.7631 122.4 27.7631C121.681 27.7631 120.99 27.6717 120.328 27.4888C119.666 27.3059 119.046 27.0452 118.469 26.7066C117.892 26.368 117.367 25.9633 116.895 25.4926C116.424 25.0219 116.02 24.5005 115.683 23.9282C115.347 23.3559 115.088 22.7396 114.904 22.0793C114.721 21.419 114.629 20.7299 114.629 20.012C114.629 19.3009 114.721 18.6135 114.904 17.9498C115.088 17.2861 115.349 16.6664 115.689 16.0907C116.028 15.5151 116.434 14.9902 116.906 14.5161C117.378 14.0421 117.902 13.6374 118.479 13.3022C119.056 12.9669 119.676 12.7062 120.338 12.52C121 12.3337 121.691 12.2406 122.41 12.2406C123.246 12.2406 124.04 12.3659 124.794 12.6165C125.547 12.8671 126.254 13.2226 126.912 13.6831ZM128.56 12.8877C128.56 12.7519 128.604 12.6433 128.691 12.5618C128.779 12.4803 128.89 12.4396 129.025 12.4396H139.318C139.44 12.4396 139.549 12.477 139.647 12.5516C139.745 12.6263 139.797 12.7384 139.804 12.8877V14.5173C139.804 14.6463 139.762 14.7634 139.677 14.8687C139.593 14.9739 139.473 15.0266 139.318 15.0266H135.597V27.0956C135.597 27.2246 135.555 27.3349 135.471 27.4266C135.387 27.5182 135.27 27.5641 135.122 27.5641H133.282C133.154 27.5641 133.044 27.5199 132.953 27.4317C132.862 27.3434 132.817 27.2314 132.817 27.0956V15.0266H129.025C128.89 15.0266 128.779 14.9841 128.691 14.8992C128.604 14.8144 128.56 14.6871 128.56 14.5173V12.8877ZM140.699 20.012C140.699 19.3009 140.791 18.6135 140.973 17.9498C141.156 17.2861 141.417 16.6664 141.756 16.0907C142.094 15.5151 142.499 14.9902 142.97 14.5161C143.44 14.0421 143.964 13.6374 144.539 13.3022C145.115 12.9669 145.733 12.7062 146.393 12.52C147.053 12.3337 147.743 12.2406 148.46 12.2406C149.172 12.2406 149.857 12.3337 150.518 12.52C151.178 12.7062 151.796 12.9669 152.372 13.3022C152.947 13.6374 153.472 14.0421 153.946 14.5161C154.42 14.9902 154.825 15.5151 155.16 16.0907C155.495 16.6664 155.756 17.2861 155.942 17.9498C156.129 18.6135 156.222 19.3009 156.222 20.012C156.222 20.7299 156.129 21.419 155.942 22.0793C155.756 22.7396 155.495 23.3559 155.16 23.9282C154.825 24.5005 154.42 25.0219 153.946 25.4926C153.472 25.9633 152.947 26.368 152.372 26.7066C151.796 27.0452 151.178 27.3059 150.518 27.4888C149.857 27.6717 149.172 27.7631 148.46 27.7631C147.743 27.7631 147.053 27.6717 146.393 27.4888C145.733 27.3059 145.115 27.0452 144.539 26.7066C143.964 26.368 143.44 25.9633 142.97 25.4926C142.499 25.0219 142.094 24.5005 141.756 23.9282C141.417 23.3559 141.156 22.7396 140.973 22.0793C140.791 21.419 140.699 20.7299 140.699 20.012ZM143.485 20.012C143.485 20.7171 143.612 21.3764 143.866 21.99C144.12 22.6036 144.47 23.1392 144.917 23.5968C145.364 24.0545 145.89 24.4155 146.496 24.6799C147.102 24.9443 147.756 25.0765 148.46 25.0765C149.158 25.0765 149.809 24.9443 150.415 24.6799C151.021 24.4155 151.547 24.0545 151.994 23.5968C152.441 23.1392 152.793 22.6036 153.05 21.99C153.307 21.3764 153.436 20.7171 153.436 20.012C153.436 19.3137 153.307 18.6544 153.05 18.034C152.793 17.4137 152.441 16.8747 151.994 16.417C151.547 15.9594 151.021 15.5967 150.415 15.3289C149.809 15.0611 149.158 14.9272 148.46 14.9272C147.756 14.9272 147.102 15.0611 146.496 15.3289C145.89 15.5967 145.364 15.9594 144.917 16.417C144.47 16.8747 144.12 17.4137 143.866 18.034C143.612 18.6544 143.485 19.3137 143.485 20.012Z" fill="#0085E2"/>
</svg>
